HIERARCHY
ROOT Hips
{
	OFFSET	0.00	0.00	0.00
	CHANNELS 6 Xposition Yposition Zposition Zrotation Xrotation Yrotation
	JOINT LeftUpLeg
	{
		OFFSET	 0.126116	-0.014019	-0.065224
		CHANNELS 3 Zrotation Xrotation Yrotation
		JOINT LeftLeg
		{
			OFFSET	 0.000000	 0.000000	 0.569914
			CHANNELS 3 Zrotation Xrotation Yrotation
			JOINT LeftFoot
			{
				OFFSET	 0.000000	 0.000000	 0.544423
				CHANNELS 3 Zrotation Xrotation Yrotation
				JOINT LeftToeBase
				{
					OFFSET	 0.000000	 0.000000	 0.207117
					CHANNELS 3 Zrotation Xrotation Yrotation
					End Site
					{
						OFFSET	 0.000000	 0.000000	 0.207117
					}
				}
			}
		}
	}
	JOINT RightUpLeg
	{
		OFFSET	-0.124023	-0.008373	-0.065224
		CHANNELS 3 Zrotation Xrotation Yrotation
		JOINT RightLeg
		{
			OFFSET	 0.000000	 0.000000	 0.570047
			CHANNELS 3 Zrotation Xrotation Yrotation
			JOINT RightFoot
			{
				OFFSET	 0.000000	 0.000000	 0.544354
				CHANNELS 3 Zrotation Xrotation Yrotation
				JOINT RightToeBase
				{
					OFFSET	 0.000000	 0.000000	 0.207540
					CHANNELS 3 Zrotation Xrotation Yrotation
					End Site
					{
						OFFSET	 0.000000	 0.000000	 0.207540
					}
				}
			}
		}
	}
	JOINT Spine
	{
		OFFSET	 0.000184	-0.007763	 0.117403
		CHANNELS 3 Zrotation Xrotation Yrotation
		JOINT Spine1
		{
			OFFSET	 0.000000	 0.000000	 0.137269
			CHANNELS 3 Zrotation Xrotation Yrotation
			JOINT Spine2
			{
				OFFSET	 0.000000	 0.000000	 0.156879
				CHANNELS 3 Zrotation Xrotation Yrotation
				JOINT LeftShoulder
				{
					OFFSET	 0.080501	-0.002496	 0.160144
					CHANNELS 3 Zrotation Xrotation Yrotation
					JOINT LeftArm
					{
						OFFSET	 0.000000	 0.000000	 0.164363
						CHANNELS 3 Zrotation Xrotation Yrotation
						JOINT LeftForeArm
						{
							OFFSET	 0.000000	 0.000000	 0.364576
							CHANNELS 3 Zrotation Xrotation Yrotation
							JOINT LeftHand
							{
								OFFSET	 0.000000	 0.000000	 0.360812
								CHANNELS 3 Zrotation Xrotation Yrotation
								JOINT LeftHandIndex1
								{
									OFFSET	 0.000000	 0.000000	 0.086006
									CHANNELS 3 Zrotation Xrotation Yrotation
									JOINT LeftHandIndex2
									{
										OFFSET	 0.000000	 0.000000	 0.047236
										CHANNELS 3 Zrotation Xrotation Yrotation
										JOINT LeftHandIndex3
										{
											OFFSET	-0.004284	-0.000551	 0.038166
											CHANNELS 3 Zrotation Xrotation Yrotation
											End Site
											{
												OFFSET	-0.004284	-0.000551	 0.038166
											}
										}
									}
								}
							}
						}
					}
				}
				JOINT Neck
				{
					OFFSET	 0.000000	 0.000000	 0.176489
					CHANNELS 3 Zrotation Xrotation Yrotation
					JOINT Head
					{
						OFFSET	 0.000000	-0.001747	 0.077940
						CHANNELS 3 Zrotation Xrotation Yrotation
						End Site
						{
							OFFSET	 0.000000	-0.001747	 0.077940
						}
					}
				}
				JOINT RightShoulder
				{
					OFFSET	-0.080363	 0.000306	 0.159706
					CHANNELS 3 Zrotation Xrotation Yrotation
					JOINT RightArm
					{
						OFFSET	 0.000000	 0.000000	 0.164196
						CHANNELS 3 Zrotation Xrotation Yrotation
						JOINT RightForeArm
						{
							OFFSET	 0.000000	 0.000000	 0.365611
							CHANNELS 3 Zrotation Xrotation Yrotation
							JOINT RightHand
							{
								OFFSET	 0.000000	 0.000000	 0.360648
								CHANNELS 3 Zrotation Xrotation Yrotation
								JOINT RightHandIndex1
								{
									OFFSET	 0.000000	 0.000000	 0.069977
									CHANNELS 3 Zrotation Xrotation Yrotation
									JOINT RightHandIndex2
									{
										OFFSET	 0.000000	 0.000000	 0.052305
										CHANNELS 3 Zrotation Xrotation Yrotation
										JOINT RightHandIndex3
										{
											OFFSET	 0.009002	-0.000782	 0.042196
											CHANNELS 3 Zrotation Xrotation Yrotation
											End Site
											{
												OFFSET	 0.009002	-0.000782	 0.042196
											}
										}
									}
								}
							}
						}
					}
				}
			}
		}
	}
}
MOTION
Frames:    4
Frame Time: 0.03333334
 6.470878	 2.922973	-0.205640	 159.123500	-2.401179	-1.089405	 7.219663	 19.730800	-176.732900	-3.571804	-11.633950	 1.460916	 3.399405	 84.205360	-0.105408	-2.311258	 38.789510	-0.243644	 4.680105	-35.506110	-178.092200	 2.013255	-45.392060	 5.829830	 104.126600	 89.879670	-98.083290	 2.373399	 30.655170	 0.049813	-0.497313	 2.424558	 2.354805	-0.412962	-3.490997	 0.852648	-0.348080	-6.405319	-0.509278	-91.776180	 78.527420	-180.000000	 35.550910	 60.657090	-53.467560	-8.942945	-4.955585	-35.445210	 5.193451	 11.466040	-5.474735	-3.812334	 37.924440	-2.927599	-2.450526	 36.184240	 0.754587	-1.378229	 35.397820	-2.634230	 1.211322	 2.144518	-4.943542	 1.250373	-9.702740	 3.360652	 89.782120	 78.203870	 180.000000	-38.273810	 71.812230	 35.819500	 0.023509	-6.857280	 22.405720	-15.710000	 10.184340	 9.703361	 6.437017	 35.671460	-0.771858	 2.830251	 35.756010	-7.813440	-2.350882	 35.473990	 5.254307
 6.479549	 2.943766	-0.206378	 159.318800	-2.192779	-1.195845	 7.304728	 20.600610	-176.849400	-3.559882	-11.631270	 1.482327	 3.656543	 84.388250	-0.275117	-2.300019	 39.828610	-0.271030	 5.093315	-35.756540	-177.770300	 0.871182	-42.517170	 4.897478	 118.686100	 89.802180	-112.980200	 2.370165	 31.223970	 0.062583	-0.561869	 2.276176	 2.318363	-0.492143	-3.551917	 0.827742	-0.435568	-6.451059	-0.529386	-91.776180	 78.527400	-180.000000	 35.706150	 60.533300	-53.844580	-8.997642	-4.960463	-36.057750	 5.041860	 10.839060	-5.458246	-3.812334	 37.924440	-2.927599	-2.450526	 36.184240	 0.754587	-1.378229	 35.397820	-2.634230	 1.222044	 2.170526	-4.958495	 1.253161	-9.814307	 3.551475	 89.782100	 78.203870	-180.000000	-37.763860	 72.159580	 35.201400	 0.160713	-6.809826	 21.991760	-15.758990	 9.582108	 9.681282	 6.437017	 35.671460	-0.771858	 2.830251	 35.756010	-7.813440	-2.350882	 35.473990	 5.254307
 6.489890	 2.968689	-0.207400	 159.562300	-2.014978	-1.276421	 7.384239	 21.712250	-177.000400	-3.481804	-11.627050	 1.515321	 4.001672	 84.432150	-0.469003	-2.283455	 41.234040	-0.309221	 5.266843	-36.058750	-177.540600	 0.062059	-39.962050	 4.136578	 145.334400	 89.598950	-139.956400	 2.365289	 32.031070	 0.080905	-0.658605	 2.151733	 2.219215	-0.592718	-3.618711	 0.778629	-0.520663	-6.509218	-0.560331	-91.776180	 78.527400	-180.000000	 36.113740	 60.519890	-54.461760	-9.054465	-4.966078	-36.530200	 4.900102	 10.053610	-5.445218	-3.812334	 37.924440	-2.927599	-2.450526	 36.184240	 0.754587	-1.378229	 35.397820	-2.634230	 1.226580	 2.165351	-4.978220	 1.253413	-9.894198	 3.815693	 89.782120	 78.203870	 180.000000	-37.108560	 72.537800	 34.444770	 0.267704	-6.757829	 21.460700	-15.851120	 8.793053	 9.653940	 6.437017	 35.671460	-0.771858	 2.830251	 35.756010	-7.813440	-2.350882	 35.473990	 5.254307
 6.500048	 2.992903	-0.208242	 159.805500	-1.898584	-1.313034	 7.492424	 22.807200	-177.264300	-3.341682	-11.621840	 1.554960	 4.365586	 84.305910	-0.638675	-2.262637	 42.831600	-0.354322	 5.187453	-36.071980	-177.452100	-0.215963	-38.446980	 3.742057	 152.368900	 89.410170	-147.165800	 2.361418	 32.633160	 0.094733	-0.767751	 2.081221	 2.094040	-0.692406	-3.670527	 0.711051	-0.586640	-6.553839	-0.595933	-91.776180	 78.527400	 180.000000	 36.553580	 60.653380	-54.899050	-9.086833	-4.983654	-36.727800	 4.819949	 9.241144	-5.432362	-3.812334	 37.924440	-2.927599	-2.450526	 36.184240	 0.754587	-1.378229	 35.397820	-2.634230	 1.231034	 2.118036	-5.006567	 1.257240	-9.920575	 4.077507	 89.782090	 78.203830	-180.000000	-36.498510	 72.855780	 33.760530	 0.319353	-6.707870	 20.938740	-15.950220	 7.979435	 9.627764	 6.437017	 35.671460	-0.771858	 2.830251	 35.756010	-7.813440	-2.350882	 35.473990	 5.254307
